<svg id="Capa_1" enable-background="new 0 0 512 512" height="512" viewBox="0 0 512 512" width="512" xmlns="http://www.w3.org/2000/svg"><g><g><circle cx="256" cy="256" fill="#ebcdfa" r="152"/></g><g><path d="m271.508 104.769c-48.066-4.76-92.13 12.892-122.988 43.75 9.226 9.226 23.601 9.997 34.294 2.519 24.943-17.445 56.364-26.236 89.868-21.977 56.992 7.244 103.012 53.264 110.257 110.257 4.259 33.503-4.532 64.924-21.977 89.868-7.478 10.692-6.707 25.067 2.519 34.294 30.858-30.859 48.51-74.923 43.75-122.989-7.045-71.138-64.585-128.677-135.723-135.722z" fill="#fff"/></g><g><path d="m208.166 321.581v-131.163c0-4.981 5.434-8.058 9.705-5.495l109.303 65.582c4.148 2.489 4.148 8.501 0 10.99l-109.303 65.582c-4.271 2.562-9.705-.515-9.705-5.496z" fill="#ebcdfa"/></g><g><path d="m327.174 250.504-95.01-57.006v1.86c0 16.209 8.504 31.229 22.402 39.569l25.255 15.155c4.421 2.653 5.219 8.743 1.583 12.398-7.846 7.885-12.404 18.65-12.404 30.053v3.866l58.174-34.904c4.148-2.489 4.148-8.502 0-10.991z" fill="#fff"/></g><g><path d="m214.573 335.986c-2.449 0-4.899-.621-7.099-1.867-4.508-2.553-7.309-7.356-7.309-12.537v-131.164c0-5.181 2.801-9.984 7.309-12.537 4.509-2.554 10.069-2.482 14.512.182l109.303 65.582c4.38 2.629 6.995 7.247 6.995 12.355s-2.615 9.727-6.995 12.354l-109.303 65.583c-2.274 1.364-4.843 2.049-7.413 2.049zm1.592-142.757v125.541l104.618-62.77z" fill="#283246"/></g><g><path d="m256 416c-88.224 0-160-71.775-160-160s71.776-160 160-160c88.225 0 160 71.775 160 160s-71.775 160-160 160zm0-304c-79.402 0-144 64.598-144 144s64.598 144 144 144 144-64.598 144-144-64.598-144-144-144z" fill="#9c89c2"/></g><g><path d="m397.421 405.42c-2.048 0-4.095-.781-5.657-2.343-3.124-3.125-3.124-8.19 0-11.314 36.264-36.263 56.236-84.478 56.236-135.763s-19.972-99.5-56.236-135.764c-3.124-3.124-3.124-8.189 0-11.314 3.125-3.123 8.189-3.123 11.314 0 39.286 39.286 60.922 91.519 60.922 147.078s-21.636 107.792-60.922 147.078c-1.562 1.561-3.61 2.342-5.657 2.342z" fill="#9c89c2"/></g><g><path d="m114.579 405.42c-2.047 0-4.095-.781-5.657-2.343-39.286-39.285-60.922-91.519-60.922-147.077s21.636-107.792 60.922-147.078c3.125-3.123 8.19-3.122 11.313 0 3.124 3.125 3.124 8.189 0 11.314-36.264 36.264-56.235 84.478-56.235 135.764s19.971 99.5 56.235 135.764c3.124 3.125 3.124 8.189 0 11.314-1.562 1.561-3.609 2.342-5.656 2.342z" fill="#9c89c2"/></g><g><path d="m431.362 439.362c-2.048 0-4.095-.781-5.657-2.343-3.124-3.125-3.124-8.189 0-11.314 45.331-45.329 70.295-105.599 70.295-169.705s-24.964-124.376-70.295-169.705c-3.124-3.125-3.124-8.189 0-11.314 3.126-3.123 8.19-3.121 11.314 0 48.352 48.352 74.981 112.639 74.981 181.019s-26.629 132.667-74.98 181.02c-1.563 1.561-3.611 2.342-5.658 2.342z" fill="#ebcdfa"/></g><g><path d="m80.638 439.362c-2.047 0-4.095-.781-5.657-2.343-48.352-48.352-74.981-112.64-74.981-181.019s26.629-132.667 74.981-181.02c3.124-3.123 8.19-3.122 11.313 0 3.124 3.125 3.124 8.189 0 11.314-45.33 45.33-70.294 105.599-70.294 169.706s24.964 124.376 70.294 169.705c3.124 3.125 3.124 8.189 0 11.314-1.562 1.562-3.609 2.343-5.656 2.343z" fill="#ebcdfa"/></g><g><path d="m256 416c-88.224 0-160-71.775-160-160 0-14.28 1.884-28.444 5.599-42.099 1.16-4.264 5.557-6.78 9.819-5.62 4.263 1.16 6.779 5.557 5.619 9.819-3.342 12.287-5.037 25.038-5.037 37.9 0 79.402 64.598 144 144 144 18.326 0 36.177-3.394 53.055-10.086 4.106-1.629 8.757.379 10.386 4.487 1.629 4.107-.381 8.758-4.487 10.386-18.765 7.44-38.6 11.213-58.954 11.213z" fill="#283246"/></g></g></svg>